<?xml version="1.0" encoding="utf-8"?>
<!-- Generator: Adobe Illustrator 16.0.0, SVG Export Plug-In . SVG Version: 6.00 Build 0)  -->
<!DOCTYPE svg PUBLIC "-//W3C//DTD SVG 1.1//EN" "http://www.w3.org/Graphics/SVG/1.1/DTD/svg11.dtd">
<svg version="1.1" id="Layer_1" xmlns="http://www.w3.org/2000/svg" xmlns:xlink="http://www.w3.org/1999/xlink" x="0px" y="0px"
	 width="550px" height="550px" viewBox="0 0 550 550" enable-background="new 0 0 550 550" xml:space="preserve">
<g>
	<path fill="#8797CA" d="M250.4,250.9c-1.6,0-3.2-0.6-4.5-1.8c-15.4-15.2-23.9-35.2-23.9-56.3c0-21.7,8.9-42.5,25-58.3L325,57.5
		c32.6-32.1,85.7-32.1,118.3,0c15.8,15.5,24.5,36.3,24.5,58.4c0,22.1-8.7,42.9-24.5,58.4L370,249c-2.5,2.5-6.5,2.6-9,0.1
		c-2.5-2.5-2.6-6.5-0.1-9l73.4-74.8c13.4-13.2,20.7-30.7,20.7-49.3c0-18.7-7.3-36.2-20.6-49.3c-27.7-27.2-72.7-27.2-100.3,0
		l-78.1,76.9c-13.7,13.4-21.2,30.9-21.2,49.2c0,17.7,7.1,34.4,20.1,47.2c2.5,2.5,2.5,6.5,0.1,9C253.7,250.3,252,250.9,250.4,250.9z"
		/>
	<path fill="#8797CA" d="M167.7,378.8c-21.4,0-42.8-8-59.1-24.1c-15.8-15.5-24.5-36.3-24.5-58.4c0-22.1,8.7-42.9,24.5-58.4
		l73.3-74.7c2.5-2.5,6.5-2.6,9-0.1c2.5,2.5,2.6,6.5,0.1,9L117.6,247c-13.4,13.2-20.7,30.7-20.7,49.3c0,18.7,7.3,36.2,20.6,49.3
		c27.7,27.3,72.7,27.3,100.3,0l78.1-76.9c13.7-13.4,21.2-30.9,21.2-49.2c0-17.7-7.1-34.4-20.1-47.2c-2.5-2.5-2.5-6.5-0.1-9
		c2.5-2.5,6.5-2.5,9-0.1c15.4,15.2,23.9,35.2,23.9,56.3c0,21.7-8.9,42.5-25,58.3l-78.1,76.9C210.5,370.8,189.1,378.8,167.7,378.8z"
		/>
</g>
<g>
	<path fill="#E54D3C" d="M192.8,123c-1.6,0-3.3-0.6-4.5-1.9l-32-32c-2.5-2.5-2.5-6.5,0-9c2.5-2.5,6.5-2.5,9,0l32,32
		c2.5,2.5,2.5,6.5,0,9C196.1,122.4,194.4,123,192.8,123z"/>
	<path fill="#E54D3C" d="M212,110.2c-3.5,0-6.4-2.9-6.4-6.4V65.5c0-3.5,2.9-6.4,6.4-6.4c3.5,0,6.4,2.9,6.4,6.4v38.4
		C218.4,107.4,215.5,110.2,212,110.2z"/>
	<path fill="#E54D3C" d="M180,142.2h-38.4c-3.5,0-6.4-2.9-6.4-6.4s2.9-6.4,6.4-6.4H180c3.5,0,6.4,2.9,6.4,6.4S183.5,142.2,180,142.2
		z"/>
	<path fill="#E54D3C" d="M391,334c-1.6,0-3.3-0.6-4.5-1.9l-32-32c-2.5-2.5-2.5-6.5,0-9c2.5-2.5,6.5-2.5,9,0l32,32
		c2.5,2.5,2.5,6.5,0,9C394.3,333.4,392.7,334,391,334z"/>
	<path fill="#E54D3C" d="M339.9,353.2c-3.5,0-6.4-2.9-6.4-6.4v-38.4c0-3.5,2.9-6.4,6.4-6.4s6.4,2.9,6.4,6.4v38.4
		C346.3,350.3,343.4,353.2,339.9,353.2z"/>
	<path fill="#E54D3C" d="M410.2,282.9h-38.4c-3.5,0-6.4-2.9-6.4-6.4c0-3.5,2.9-6.4,6.4-6.4h38.4c3.5,0,6.4,2.9,6.4,6.4
		C416.6,280,413.7,282.9,410.2,282.9z"/>
</g>
<rect y="401.7" fill="#E54D3A" width="550" height="148.3"/>
<g>
	<path fill="#FFFFFF" d="M32,454.8v15.9h-4.9v-42h11.5c4.5,0,8,1.1,10.4,3.3c2.5,2.2,3.7,5.3,3.7,9.3s-1.4,7.2-4.1,9.8
		c-2.7,2.5-6.5,3.8-11.1,3.8H32z M32,433.1v17.2h5.2c3.4,0,6-0.8,7.8-2.3s2.7-3.7,2.7-6.6c0-5.5-3.3-8.3-9.8-8.3H32z"/>
	<path fill="#FFFFFF" d="M100.3,470.7H78.1v-42h21.3v4.5H83v14h15.2v4.4H83v14.7h17.3V470.7z"/>
	<path fill="#FFFFFF" d="M155.9,470.7h-5.9l-7-11.8c-0.6-1.1-1.3-2-1.9-2.8c-0.6-0.8-1.2-1.4-1.9-1.9c-0.6-0.5-1.3-0.8-2.1-1.1
		s-1.6-0.3-2.5-0.3h-4v17.9h-4.9v-42h12.5c1.8,0,3.5,0.2,5.1,0.7s2.9,1.2,4,2.1s2,2.1,2.7,3.5s1,3,1,4.9c0,1.5-0.2,2.8-0.7,4
		s-1.1,2.3-1.9,3.3c-0.8,1-1.8,1.8-2.9,2.4s-2.4,1.2-3.9,1.6v0.1c0.7,0.3,1.3,0.7,1.8,1.1c0.5,0.4,1,0.9,1.5,1.4s0.9,1.2,1.4,1.9
		c0.5,0.7,1,1.5,1.5,2.4L155.9,470.7z M130.7,433.1v15.2h6.7c1.2,0,2.4-0.2,3.4-0.6c1-0.4,1.9-0.9,2.7-1.6s1.4-1.5,1.8-2.5
		c0.4-1,0.6-2.1,0.6-3.4c0-2.2-0.7-4-2.2-5.3c-1.5-1.3-3.6-1.9-6.3-1.9H130.7z"/>
	<path fill="#FFFFFF" d="M221.9,470.7H217v-28.2c0-2.2,0.1-5,0.4-8.2h-0.1c-0.5,1.9-0.9,3.3-1.3,4.1l-14.4,32.3h-2.4L185,438.6
		c-0.4-0.9-0.8-2.4-1.3-4.3h-0.1c0.2,1.7,0.2,4.4,0.2,8.2v28.1h-4.7v-42h6.5l12.9,29.3c1,2.2,1.6,3.9,1.9,5h0.2c0.8-2.3,1.5-4,2-5.2
		l13.2-29.2h6.2V470.7z"/>
	<path fill="#FFFFFF" d="M282.9,470.7h-5.4l-4.5-11.8h-17.8l-4.2,11.8h-5.5l16.1-42h5.1L282.9,470.7z M271.4,454.5l-6.6-17.9
		c-0.2-0.6-0.4-1.5-0.6-2.8H264c-0.2,1.2-0.4,2.1-0.7,2.8l-6.5,17.9H271.4z"/>
	<path fill="#FFFFFF" d="M328.3,470.7h-21.8v-42h4.9v37.6h16.9V470.7z"/>
	<path fill="#FFFFFF" d="M361.1,428.7v4.2H357v33.6h4.1v4.2H348v-4.2h4.1v-33.6H348v-4.2H361.1z"/>
	<path fill="#FFFFFF" d="M419.3,470.7h-6l-21.6-33.5c-0.5-0.8-1-1.7-1.3-2.6h-0.2c0.2,0.9,0.2,2.8,0.2,5.8v30.4h-4.9v-42h6.4l21,33
		c0.9,1.4,1.4,2.3,1.7,2.8h0.1c-0.2-1.2-0.3-3.3-0.3-6.2v-29.6h4.9V470.7z"/>
	<path fill="#FFFFFF" d="M477,470.7h-6.9l-16.2-19.2c-0.6-0.7-1-1.2-1.1-1.5h-0.1v20.7h-4.9v-42h4.9v19.7h0.1
		c0.3-0.4,0.6-0.9,1.1-1.4l15.7-18.3h6.1l-18,20.2L477,470.7z"/>
	<path fill="#FFFFFF" d="M498,469v-5.8c0.7,0.6,1.5,1.1,2.4,1.6c0.9,0.5,1.9,0.9,2.9,1.2s2.1,0.6,3.1,0.7s2,0.3,2.9,0.3
		c3,0,5.3-0.6,6.8-1.7s2.2-2.7,2.2-4.8c0-1.1-0.2-2.1-0.7-3s-1.2-1.6-2.1-2.3s-1.9-1.4-3.1-2s-2.5-1.3-3.9-2
		c-1.5-0.7-2.8-1.5-4.1-2.3s-2.4-1.6-3.3-2.5s-1.7-2-2.2-3.1c-0.5-1.2-0.8-2.5-0.8-4.1c0-1.9,0.4-3.6,1.3-5s1.9-2.6,3.3-3.5
		s2.9-1.6,4.7-2.1c1.7-0.4,3.5-0.7,5.3-0.7c4.1,0,7.2,0.5,9.1,1.5v5.5c-2.5-1.7-5.7-2.6-9.6-2.6c-1.1,0-2.1,0.1-3.2,0.3
		s-2,0.6-2.9,1.1s-1.5,1.2-2.1,2s-0.8,1.8-0.8,2.9c0,1.1,0.2,2,0.6,2.8c0.4,0.8,1,1.5,1.8,2.1s1.7,1.3,2.9,1.9
		c1.1,0.6,2.4,1.3,3.9,2c1.5,0.7,2.9,1.5,4.3,2.3s2.5,1.7,3.5,2.7s1.8,2.1,2.4,3.3c0.6,1.2,0.9,2.6,0.9,4.2c0,2.1-0.4,3.8-1.2,5.3
		c-0.8,1.4-1.9,2.6-3.3,3.5s-3,1.5-4.8,1.9s-3.7,0.6-5.7,0.6c-0.7,0-1.5-0.1-2.5-0.2s-2-0.3-3-0.5s-2-0.5-2.9-0.8
		S498.6,469.3,498,469z"/>
	<path fill="#FFFFFF" d="M43.7,528.2c-3.2,1.7-7.2,2.5-12,2.5c-6.2,0-11.1-2-14.8-6c-3.7-4-5.6-9.2-5.6-15.7
		c0-6.9,2.1-12.6,6.3-16.8c4.2-4.3,9.5-6.4,15.9-6.4c4.1,0,7.5,0.6,10.2,1.8v5.4c-3.1-1.7-6.5-2.6-10.3-2.6c-5,0-9,1.7-12.1,5
		c-3.1,3.3-4.6,7.8-4.6,13.4c0,5.3,1.4,9.5,4.3,12.6c2.9,3.1,6.7,4.7,11.4,4.7c4.4,0,8.1-1,11.3-2.9V528.2z"/>
	<path fill="#FFFFFF" d="M102.3,512.5c0,12.2-5.5,18.3-16.5,18.3c-10.5,0-15.8-5.9-15.8-17.6v-26.5h5.1v26.2
		c0,8.9,3.8,13.4,11.3,13.4c7.2,0,10.9-4.3,10.9-12.9v-26.7h5.1V512.5z"/>
	<path fill="#FFFFFF" d="M129.1,528.3v-6c0.7,0.6,1.5,1.2,2.5,1.6c1,0.5,2,0.9,3,1.2c1.1,0.3,2.1,0.6,3.2,0.8c1.1,0.2,2.1,0.3,3,0.3
		c3.1,0,5.5-0.6,7-1.7c1.5-1.2,2.3-2.8,2.3-5c0-1.2-0.3-2.2-0.8-3.1c-0.5-0.9-1.2-1.7-2.1-2.4c-0.9-0.7-2-1.4-3.2-2.1
		c-1.2-0.7-2.6-1.3-4-2.1c-1.5-0.8-2.9-1.5-4.2-2.3c-1.3-0.8-2.5-1.7-3.4-2.6c-1-0.9-1.7-2-2.3-3.2c-0.6-1.2-0.8-2.6-0.8-4.2
		c0-2,0.4-3.7,1.3-5.2c0.9-1.5,2-2.7,3.4-3.6c1.4-0.9,3-1.7,4.8-2.1c1.8-0.5,3.6-0.7,5.5-0.7c4.3,0,7.4,0.5,9.4,1.5v5.7
		c-2.6-1.8-5.9-2.7-9.9-2.7c-1.1,0-2.2,0.1-3.3,0.3c-1.1,0.2-2.1,0.6-3,1.1c-0.9,0.5-1.6,1.2-2.1,2c-0.5,0.8-0.8,1.8-0.8,3
		c0,1.1,0.2,2.1,0.6,2.9c0.4,0.8,1,1.5,1.8,2.2c0.8,0.7,1.8,1.3,3,1.9c1.2,0.6,2.5,1.3,4,2.1c1.6,0.8,3,1.6,4.4,2.4s2.6,1.8,3.7,2.8
		c1,1,1.9,2.2,2.5,3.4c0.6,1.3,0.9,2.7,0.9,4.3c0,2.1-0.4,4-1.3,5.4c-0.8,1.5-2,2.7-3.4,3.6c-1.4,0.9-3.1,1.6-4.9,2
		c-1.9,0.4-3.8,0.6-5.9,0.6c-0.7,0-1.5-0.1-2.5-0.2c-1-0.1-2-0.3-3.1-0.5c-1-0.2-2-0.5-3-0.8C130.4,529,129.6,528.7,129.1,528.3z"/>
	<path fill="#FFFFFF" d="M207.7,491.3h-12.5v38.8h-5.1v-38.8h-12.5v-4.6h30.1V491.3z"/>
	<path fill="#FFFFFF" d="M250,530.8c-6.2,0-11.1-2-14.8-6.1c-3.7-4.1-5.6-9.3-5.6-15.8c0-7,1.9-12.6,5.7-16.7
		c3.8-4.2,8.9-6.2,15.4-6.2c6,0,10.8,2,14.5,6.1c3.7,4,5.5,9.3,5.5,15.8c0,7.1-1.9,12.7-5.6,16.8S256.3,530.8,250,530.8z
		 M250.3,490.5c-4.6,0-8.3,1.6-11.1,4.9c-2.8,3.3-4.3,7.6-4.3,13c0,5.3,1.4,9.7,4.2,12.9c2.8,3.3,6.4,4.9,10.9,4.9
		c4.8,0,8.5-1.6,11.3-4.7c2.7-3.1,4.1-7.5,4.1-13c0-5.7-1.3-10.2-4-13.3C258.7,492.1,255,490.5,250.3,490.5z"/>
	<path fill="#FFFFFF" d="M341.5,530.1h-5.1v-29.1c0-2.3,0.1-5.1,0.4-8.4h-0.1c-0.5,2-0.9,3.4-1.3,4.2l-14.8,33.4h-2.5l-14.8-33.1
		c-0.4-1-0.9-2.5-1.3-4.5h-0.1c0.2,1.7,0.2,4.6,0.2,8.5v29.1h-4.9v-43.4h6.7l13.3,30.3c1,2.3,1.7,4.1,2,5.2h0.2
		c0.9-2.4,1.6-4.2,2.1-5.3l13.6-30.2h6.4V530.1z"/>
	<path fill="#FFFFFF" d="M380.2,486.7v4.4h-4.2v34.7h4.2v4.4h-13.6v-4.4h4.2V491h-4.2v-4.4H380.2z"/>
	<path fill="#FFFFFF" d="M433.7,487.9l-25.4,37.6h24.8v4.6h-32.4v-1.4l25.2-37.4h-23.2v-4.6h31V487.9z"/>
	<path fill="#FFFFFF" d="M481.7,530.1h-23v-43.4h22v4.6h-17v14.4h15.7v4.6h-15.7v15.2h17.9V530.1z"/>
	<path fill="#FFFFFF" d="M539.1,530.1h-6.1l-7.3-12.2c-0.7-1.1-1.3-2.1-1.9-2.9c-0.6-0.8-1.3-1.4-1.9-2c-0.7-0.5-1.4-0.9-2.1-1.1
		c-0.8-0.2-1.6-0.3-2.6-0.3h-4.2v18.5H508v-43.4h13c1.9,0,3.6,0.2,5.3,0.7c1.6,0.5,3,1.2,4.2,2.2c1.2,1,2.1,2.2,2.8,3.6
		c0.7,1.4,1,3.1,1,5.1c0,1.5-0.2,2.9-0.7,4.2c-0.5,1.3-1.1,2.4-1.9,3.4c-0.8,1-1.8,1.8-3,2.5c-1.2,0.7-2.5,1.2-4,1.6v0.1
		c0.7,0.3,1.4,0.7,1.9,1.1c0.5,0.4,1,0.9,1.5,1.5c0.5,0.6,1,1.2,1.4,1.9c0.5,0.7,1,1.5,1.6,2.5L539.1,530.1z M513.1,491.3V507h6.9
		c1.3,0,2.4-0.2,3.5-0.6c1.1-0.4,2-0.9,2.8-1.6c0.8-0.7,1.4-1.6,1.8-2.6c0.4-1,0.7-2.2,0.7-3.5c0-2.3-0.8-4.1-2.3-5.4
		c-1.5-1.3-3.7-2-6.5-2H513.1z"/>
</g>
<g>
</g>
<g>
</g>
<g>
</g>
<g>
</g>
<g>
</g>
<g>
</g>
</svg>
